<svg xmlns="http://www.w3.org/2000/svg" width="512" height="512" viewBox="231.5 0 512 512">
	<path fill="#FFFFFF" d="M743.5,450.56c0,33.933-27.508,61.44-61.44,61.44H292.94c-33.933,0-61.44-27.508-61.44-61.44V61.44
		C231.5,27.508,259.007,0,292.94,0h389.12c33.933,0,61.44,27.507,61.44,61.44V450.56z"/>
	<path fill="#111111" d="M366.354,241.923h-12.421l-1.822-19.377c-3.81-3.976-8.61-7.121-14.407-9.273
		c-5.798-2.153-12.421-3.313-20.04-3.313c-11.097,0-19.376,2.317-24.842,7.121c-5.466,4.802-8.28,10.434-8.28,16.727
		s2.317,11.593,7.121,15.733s14.242,7.784,28.65,10.932c16.396,3.643,28.485,8.611,36.602,14.904
		c8.114,6.293,12.256,14.906,12.256,25.672c0,11.426-4.638,20.701-13.911,27.654c-9.275,7.123-21.53,10.6-36.767,10.6
		c-10.104,0-19.379-1.49-27.658-4.305c-8.28-2.816-15.567-6.791-21.695-11.924v-27.658h12.256l2.152,19.541
		c4.141,4.143,9.274,6.957,15.403,8.777c6.292,1.822,12.751,2.652,19.542,2.652c10.931,0,19.708-2.486,26.001-7.289
		c6.294-4.803,9.439-10.598,9.439-17.555c0-6.459-2.649-12.09-7.95-16.895c-5.3-4.803-14.738-8.775-28.65-11.756
		c-16.396-3.479-28.485-8.281-36.271-14.078c-7.948-5.796-11.924-14.078-11.924-24.677c0-10.434,4.472-19.377,13.25-26.498
		c8.942-7.288,20.535-10.765,35.109-10.765c10.103,0,19.211,1.491,27.657,4.637c8.28,3.147,15.07,7.288,20.37,12.421
		L366.354,241.923z"/>
	<path fill="#111111" d="M429.286,210.788l-17.225,1.323l22.192,79.991l5.134,24.512h0.828l6.459-24.512l29.314-92.744h12.918
		l29.313,92.744l6.624,25.174h0.829l5.631-25.174l21.529-79.991l-17.225-1.323v-11.264h46.206v11.264l-13.248,0.992l-36.436,124.873
		h-12.917l-30.64-93.901l-5.963-23.684h-0.827l-5.962,23.684l-30.144,93.901h-12.917l-36.27-124.873l-13.249-0.992v-11.264h46.04
		v11.264H429.286z"/>
	<path fill="#111111" d="M595.23,269.248c0-21.861,4.639-39.416,14.077-52.5c9.274-13.084,22.357-19.708,38.919-19.708
		c9.771,0,18.219,2.153,25.342,6.459c7.121,4.305,13.082,10.269,17.719,18.053l1.822-22.028h12.753v135.474
		c0,17.719-4.804,31.631-14.408,41.898c-9.605,10.27-22.855,15.402-39.914,15.402c-6.625,0-13.579-0.828-21.198-2.484
		c-7.453-1.654-14.077-3.809-19.543-6.625l4.143-12.752c5.464,2.652,11.261,4.639,17.389,6.129s12.421,2.152,19.046,2.152
		c13.084,0,22.854-3.809,29.479-11.594c6.625-7.617,9.938-18.381,9.938-32.127v-17.391c-4.638,6.953-10.599,12.422-17.555,16.23
		c-6.956,3.807-15.402,5.629-25.01,5.629c-16.562,0-29.313-6.127-38.753-18.383c-9.274-12.256-13.912-28.65-13.912-49.021v-2.814
		H595.23L595.23,269.248z M610.468,271.899c0,16.563,3.313,29.646,10.104,39.582c6.789,9.771,16.727,14.738,30.141,14.738
		c9.938,0,18.053-2.318,24.677-6.789c6.624-4.473,11.595-10.6,15.237-18.549v-63.595c-3.313-8.116-8.281-14.575-14.574-19.544
		c-6.294-4.969-14.74-7.618-25.008-7.618c-13.415,0-23.519,5.465-30.308,16.562c-6.79,10.931-10.27,25.174-10.27,42.563V271.899
		L610.468,271.899z"/>
	<path fill="#3C54FF" d="M383.246,143.548l3.643-11.426c8.612,2.98,14.74,5.63,18.715,7.782c-0.993-9.77-1.489-16.395-1.655-20.203
		h11.759c-0.165,5.298-0.827,12.089-1.821,20.038c5.631-2.814,11.924-5.465,19.046-7.783l3.644,11.428
		c-6.789,2.318-13.58,3.809-20.205,4.472c3.313,2.814,7.949,7.949,13.912,15.235l-9.771,6.957
		c-3.146-4.305-6.79-10.103-11.096-17.39c-3.977,7.619-7.453,13.416-10.435,17.39l-9.605-6.957
		c6.294-7.782,10.765-12.75,13.415-15.235C396.163,146.859,389.539,145.204,383.246,143.548z"/>
	<path fill="#E1024B" d="M528.323,143.548l3.645-11.426c8.611,2.98,14.738,5.63,18.715,7.782
		c-0.996-9.77-1.492-16.395-1.657-20.203h11.759c-0.165,5.298-0.828,12.089-1.82,20.038c5.63-2.814,11.924-5.465,19.045-7.783
		l3.645,11.428c-6.792,2.318-13.581,3.809-20.204,4.472c3.312,2.814,7.948,7.949,13.909,15.235l-9.77,6.957
		c-3.147-4.305-6.792-10.103-11.097-17.39c-3.977,7.619-7.453,13.416-10.435,17.39l-9.604-6.957
		c6.293-7.782,10.765-12.75,13.414-15.235C541.241,146.859,534.617,145.204,528.323,143.548z"/>
</svg>
